# xmcd
#
# Track frame offsets:
#	180
#	12608
#	29000
#	47003
#	57653
#	72488
#	86391
#	112659
#	130005
#	144490
#	158818
#	178763
#
# Disc length: 3380 seconds
#
# Revision: 0
# Processed by: cddbd v1.5.2PL0 Copyright (c) Steve Scherf et al.
# Submitted via: EasyCDDAExtractor 2010.4.0.0
#
DISCID=a50d320c
DTITLE=Chief Seattle - Where the Green Rivers Run
DYEAR=1996
DGENRE=Country
TTITLE0=Must Be Right
TTITLE1=Picture That I Can
TTITLE2=Never Have a Moment
TTITLE3=Seven Arrows
TTITLE4=The Receiver
TTITLE5=Things Change
TTITLE6=Why We Fly
TTITLE7=Inconsequential
TTITLE8=Destination
TTITLE9=Write You a Letter
TTITLE10=Water Will Find It's Own Level
TTITLE11=Bonus Track
EXTD=
EXTT0=
EXTT1=
EXTT2=
EXTT3=
EXTT4=
EXTT5=
EXTT6=
EXTT7=
EXTT8=
EXTT9=
EXTT10=
EXTT11=
PLAYORDER=
